<svg fill="#000000" height="200px" width="200px" version="1.1" id="Layer_1" xmlns="http://www.w3.org/2000/svg" xmlns:xlink="http://www.w3.org/1999/xlink" viewBox="0 0 502 502" xml:space="preserve"><g id="SVGRepo_bgCarrier" stroke-width="0"></g><g id="SVGRepo_tracerCarrier" stroke-linecap="round" stroke-linejoin="round"></g><g id="SVGRepo_iconCarrier"> <g> <g> <g> <path d="M499.071,428.845l-28.397-28.397c-1.875-1.875-4.419-2.929-7.071-2.929c-2.652,0-5.196,1.054-7.071,2.929l-2.868,2.868 l-97.2-97.199v-51.232c0-2.652-1.054-5.195-2.929-7.071L115.71,9.986C109.27,3.547,100.708,0,91.6,0 c-9.108,0-17.67,3.547-24.11,9.986L9.986,67.49C3.546,73.931,0,82.493,0,91.601c0,9.106,3.546,17.669,9.986,24.109 l237.826,237.826c1.876,1.875,4.419,2.929,7.071,2.929h51.232l97.199,97.199l-2.867,2.867c-3.905,3.905-3.905,10.237,0,14.143 l28.397,28.397c1.875,1.875,4.419,2.929,7.071,2.929c2.652,0,5.196-1.054,7.071-2.929l56.084-56.084 C502.976,439.082,502.976,432.75,499.071,428.845z M306.115,336.465h-47.09L24.129,101.567C21.466,98.905,20,95.365,20,91.601 c0-3.766,1.466-7.306,4.129-9.968l57.504-57.504C84.295,21.466,87.835,20,91.6,20c3.765,0,7.305,1.466,9.967,4.129 l234.897,234.897v47.089L306.115,336.465z M324.401,346.464l22.064-22.064l93.057,93.057l-22.064,22.064L324.401,346.464z M435.916,477.857l-14.255-14.255l2.859-2.858c0.003-0.003,0.007-0.006,0.01-0.009l24.743-24.743l14.331-14.331l14.255,14.255 L435.916,477.857z"></path> <path d="M114.29,136.354c-3.905-3.904-10.237-3.904-14.143,0c-3.905,3.905-3.905,10.237,0,14.143L264.141,314.49 c1.953,1.952,4.512,2.929,7.071,2.929s5.119-0.977,7.071-2.929c3.905-3.905,3.905-10.237,0-14.142L114.29,136.354z"></path> <path d="M70.274,92.338c-3.905-3.904-10.237-3.904-14.142,0c-3.905,3.905-3.905,10.237,0,14.143l17.749,17.748 c1.953,1.952,4.512,2.929,7.071,2.929c2.559,0,5.119-0.977,7.071-2.929c3.905-3.905,3.905-10.237,0-14.143L70.274,92.338z"></path> <path d="M156.5,316c-33.911,0-61.5,27.589-61.5,61.5s27.589,61.5,61.5,61.5s61.5-27.589,61.5-61.5S190.411,316,156.5,316z M156.5,419c-22.883,0-41.5-18.617-41.5-41.5s18.617-41.5,41.5-41.5s41.5,18.617,41.5,41.5S179.383,419,156.5,419z"></path> </g> </g> </g> </g></svg>